# xmcd
#
# Track frame offsets:
#	150
#	15527
#	29396
#	45957
#	59890
#	75750
#	88470
#	102947
#	118183
#	135323
#	152683
#	168379
#	180143
#	199027
#	216008
#	235616
#	252161
#	269635
#	281749
#	298203
#
# Disc length: 4191 seconds
#
# Revision: 1
# Processed by: cddbd v1.5PL3 Copyright (c) Steve Scherf et al.
# Submitted via: audiograbber 1.83.01
#
DISCID=15105d14
DTITLE=Diverse - Line Dance Favourites CD1
DYEAR=1900
DGENRE=Country
TTITLE0=Achy breaky heart
TTITLE1=Boot scootin' boogie
TTITLE2=I feel lucky
TTITLE3=Guitars cadillacs
TTITLE4=Jukebox with a country song
TTITLE5=I'm hurry (and I don't know why)
TTITLE6=Chattahoochee
TTITLE7=Trashy women
TTITLE8=Ain't goin' down (ti'l the sun comes up)
TTITLE9=Rock me up
TTITLE10=Blame it on your heart
TTITLE11=My baby loves me
TTITLE12=When you say nothing at all
TTITLE13=Livin' on love
TTITLE14=I swear
TTITLE15=Love me
TTITLE16=Rope the moon
TTITLE17=Wild one
TTITLE18=Fast as you
TTITLE19=Mercury blues
EXTD=
EXTT0=
EXTT1=
EXTT2=
EXTT3=
EXTT4=
EXTT5=
EXTT6=
EXTT7=
EXTT8=
EXTT9=
EXTT10=
EXTT11=
EXTT12=
EXTT13=
EXTT14=
EXTT15=
EXTT16=
EXTT17=
EXTT18=
EXTT19=
PLAYORDER=
